/* XPM */
static char *result[] = {
/* columns rows colors chars-per-pixel */
"40 40 112 2 ",
"   c #0A542C",
".  c #055E2A",
"X  c #0D592E",
"o  c #195526",
"O  c #1C5A27",
"+  c #11552A",
"@  c #185628",
"#  c #135B2C",
"$  c #1B5D2A",
"%  c #025633",
"&  c #035C35",
"*  c #0B5D31",
"=  c #00543A",
"-  c #005C3C",
";  c #235A24",
":  c #0B6029",
">  c #15612E",
",  c #1D622C",
"<  c #036137",
"1  c #086135",
"2  c #00653B",
"3  c #196430",
"4  c #2E6426",
"5  c #2E6923",
"6  c #24642A",
"7  c #2C6628",
"8  c #2A6A2A",
"9  c #346424",
"0  c #366B26",
"q  c #3C6E24",
"w  c #326C29",
"e  c #3D7126",
"r  c #35712A",
"t  c #3C7529",
"y  c #3F782A",
"u  c #447425",
"i  c #447A26",
"p  c #4B7C26",
"a  c #417628",
"s  c #457A28",
"d  c #497F29",
"f  c #005544",
"g  c #005C43",
"h  c #01574F",
"j  c #015C4B",
"k  c #015C54",
"l  c #025E5F",
"z  c #016043",
"x  c #016154",
"c  c #01625B",
"v  c #026363",
"b  c #02656B",
"n  c #02686E",
"m  c #026772",
"M  c #036C77",
"N  c #036C7C",
"B  c #4B822A",
"V  c #558426",
"C  c #578827",
"Z  c #5B8C26",
"A  c #518529",
"S  c #548A2A",
"D  c #5A8B28",
"F  c #5F9029",
"G  c #649226",
"H  c #639429",
"J  c #699528",
"K  c #65982A",
"L  c #6B9C2A",
"P  c #709F2A",
"I  c #6FA42C",
"U  c #72A42C",
"Y  c #76A82C",
"T  c #7BAC2C",
"R  c #7FB12E",
"E  c #83B52E",
"W  c #86B92F",
"Q  c #88BC2F",
"!  c #86BB30",
"~  c #8ABE30",
"^  c #8FC332",
"/  c #036E84",
"(  c #037387",
")  c #03748C",
"_  c #037791",
"`  c #047994",
"'  c #047798",
"]  c #047D9B",
"[  c #047FA3",
"{  c #0481A4",
"}  c #0583AA",
"|  c #0589B3",
" . c #058CBD",
".. c #0591BE",
"X. c #058EC0",
"o. c #0592C4",
"O. c #0595C9",
"+. c #0698CF",
"@. c #069CD4",
"#. c #069EDA",
"$. c #06A1D7",
"%. c #06A3DD",
"&. c #06A5E2",
"*. c #06A8E6",
"=. c #06ADEC",
"-. c #06AFF6",
";. c #07B4F6",
":. c #08B6F6",
">. c #07B8F7",
",. c #09BAF7",
"<. c #06B4F8",
"1. c #08B9F8",
/* pixels */
",.,.,.,.,.,.,.,.,.,.,.,.,.,.,.,.,.,.,.,.,.,.,.,.,.,.,.,.,.,.,.,.,.,.,.,.,.,.,.,.",
",.,.,.,.,.,.,.,.,.,.,.,.,.,.,.,.,.,.,.,.,.,.,.,.,.,.,.,.,.,.1.,.,.1.,.,.1.1.,.,.",
",.:.>.:.,.>.,.,.,.,.;.,.,.,.,.,.,.,.,.,.,.;.,.;.,.,.,.,.,.:.1.,.:.,.<.:.<.,.<.<.",
",.:.,.>.>.,.,.,.,.,.;.;.,.,.,.,.,.=.,.,.;.,.;.,.,.,.:.:.,.,.1.:.,.<.,.:.<.,.<.,.",
";.;.;.>.>.>.>.>.,.;.,.;.,.:.;.;.,.,.,.;.;.,.,.;.:.:.:.:.<.<.<.:.:.:.<.:.<.;.;.<.",
";.;.;.>.>.>.;.>.,.;.>.>.>.;.;.>.,.=.,.;.;.;.;.;.:.:.:.:.,.,.<.:.:.:.:.;.,.:.<.,.",
";.;.>.;.;.;.>.;.,.>.;.;.>.;.;.;.,.:.;.:.;.,.;.;.:.:.:.;.;.=.X.] m o.;.;.;.;.<.;.",
";.;.>.=.;.>.;.;.;.;.;.;.>.;.>.:.;.;.;.;.;.;.;.;.;.;.+.[ m j - < 2 / <.;.;.;.<.<.",
",.;.;.;.;.>.;.>.>.;.;.;.:.;.>.;.>.>.:.<.>.:.*.} N h g % X % 2 2 2 k -.;.;.;.;.<.",
";.;.;.;.;.;.;.;.;.;.;.;.:.1.;.>.>.>.=.O.` l - - % $ a J E p & 2 2 = $.;.;.<.;.<.",
";.;.;.,.;.>.;.>.;.;.;.,.<.<.;.#.[ m f - % + w V T ~ ^ ^ ^ ~ D , & 2 [ :.;.;.;.<.",
";.;.;.;.;.;.>.>.;.;.:.%.| ( k - &   6 p L W Q ^ ^ ^ ^ ^ ^ ^ ^ ! S 2 m :.;.;.;.<.",
";.;.>.;.>.;.;.*.o.{ b f - * , t D T ! ~ Q ^ ^ ^ ^ ^ ^ ^ ^ ^ ^ ^ T & h ;.<.;.<.<.",
">.;.>.=.+.[ N h - . # w A U E ^ E D r 8 8 B U ^ ^ ^ ^ ^ ^ ^ ^ ^ ~ $ % +.<.-.<.<.",
";.$.( c g 2   8 d J E ~ ^ ^ Q G , & & 2 2 < * i ~ ^ ^ ^ ^ ^ ^ ^ ^ t 2 ' -.;.<.<.",
":...& 2 2 2 q ! ^ ^ ^ ^ ^ ^ G * 2 & q O & 2 2 - w ~ ^ ^ ^ ~ ! ^ ^ G - v ;.;.<.<.",
"1.%.- 2 2 & F ^ ^ ^ ^ ^ ^ R 3 2 2 $ P L C o 2 2 1 S ^ ^ ^ i , T ^ E % = =.-.;.;.",
">.=.c 2 2 7 W ^ ^ ^ ^ ^ ^ B 2 2 + L C 0 Z 9 - 2 2 > E ^ Q 5 : I ^ ^ ; -  .<.<.;.",
">.;.( 2 # Y ^ ^ ^ ^ ^ ^ Q , 2 z 6 T ;   +   2 2 2 < G ^ ^ T K Q ^ ^ a 2 / <.;.<.",
">.;...& > E ^ ^ ^ ^ ^ ^ W + 2 2 X J L J K D @ 2 2 2 V ^ ^ ^ ^ ^ ^ ^ J % k -.;.;.",
";.;.#.g 1 I ^ ^ ^ ^ ^ ^ W   2 2 2 X 7 e i U G % 2 < p ^ ^ ^ ^ ^ ^ ^ W   f &.;.;.",
";.>.;.v 2 A ^ ^ ^ H W ^ ~ $ 2 2 2 * + & % u U % 2 : Z ^ ^ ^ ^ ^ ^ ^ E   - [ :.;.",
";.;.>._ 2 8 ^ ^ V : i ^ ^ t 2 2 2 4 U a i T u 2 2 X R ^ ^ ^ ^ ^ ^ ~ 4 2 2 N ;.:.",
";.;.;.o.& : R ^ G : Z ^ ^ U * 2 2 1 s K T u * 2 2 q ^ ^ ^ ^ ^ ^ ^ J - 2 2 h -.;.",
";.>.>.%.j & L ^ ^ ~ ^ ^ ^ ~ p * 2 2 2 & ; o 2 2 O E ^ ^ ^ ^ ^ ^ ~ s z 2 2 g #.-.",
";.;.;.-.b 2 i ^ ^ ^ ^ ^ ^ ^ ~ p X 2 2 2 2 2 & ; Y ^ ^ ^ ^ E U S r # < z k M &.;.",
";.-.;.-.] 2 8 ! ^ ^ ^ ^ ^ ^ ^ ^ L 0 O > # 7 V E ^ Q Y H t , & & j l ' o.*.;.;.-.",
";.;.;.;.O.- * R ^ ^ ^ ^ ^ ^ ^ ^ ^ ^ E T R W E L p 6 X & j k / | #.-.;.<.;.;.;.;.",
";.;.;.;.*.k 2 D ~ ^ ^ ^ ^ ^ ^ ^ ^ ^ E I S w 3 % & x n [ O.*.;.<.<.-.-.:.-.:.:.-.",
"-.;.;.;.>.M 2 X 6 F ~ ^ ^ ^ ~ T H y , X & j v ) X.&.;.;.;.;.;.<.<.<.-.-.-.-.-.:.",
";.;.;.-.>.} - 2 2 % V R K B 8 * % g x M } +.-.;.;.;.-.;.;.<.;.;.:.<.-.:.-.-.-.-.",
"-.;.;.;.>.+.z 2 2 2   3 & & k b ] O.&.;.-.;.;.;.;.;.<.<.-.-.;.;.-.:.:.-.-.:.-.-.",
";.;.;.-.;.=.x 2 2 - g v )  .#.-.;.;.;.;.;.-.;.-.;.-.;.;.;.;.;.:.-.<.;.;.-.-.<.-.",
";.;.;.;.;.;.( j M | @.*.;.;.;.;.;.;.;.;.;.;.;.-.;.;.;.-.;.;.-.-.:.:.-.<.-.-.-.<.",
";.;.;.;.;.;.:.=.>.;.;.>.;.;.;.-.-.;.;.;.;.;.;.-.;.;.;.;.-.;.;.:.:.-.-.;.<.-.<.:.",
";.;.;.;.;.>.>.;.;.>.;.;.;.;.;.;.;.;.;.-.;.;.;.;.;.;.-.;.;.;.;.;.-.:.-.;.-.-.<.-.",
";.;.;.;.>.;.;.;.;.;.;.;.;.;.;.-.;.;.;.;.;.-.;.-.;.-.;.-.;.;.;.:.:.:.:.:.<.<.-.-.",
";.;.>.;.>.;.;.>.;.>.;.>.;.;.;.;.;.;.-.;.;.-.;.;.;.;.:.;.;.-.;.;.<.:.-.:.<.-.<.-.",
";.;.>.;.;.;.>.;.>.>.;.>.;.;.;.;.;.;.;.;.;.;.;.;.;.-.:.:.-.;.;.;.<.-.:.-.-.:.<.<.",
">.>.;.>.>.;.;.;.;.;.;.;.>.;.;.;.-.;.;.;.;.;.;.;.;.;.:.-.;.;.;.;.-.:.<.-.<.-.-.<."
};
