/* XPM */
static char *result[] = {
/* columns rows colors chars-per-pixel */
"40 40 195 2 ",
"   c #2B4965",
".  c #30516D",
"X  c #2D5775",
"o  c #355672",
"O  c #365874",
"+  c #395C77",
"@  c #3B5E7A",
"#  c #37617F",
"$  c #43637C",
"%  c #2C6D91",
"&  c #367598",
"*  c #2A7CA5",
"=  c #436682",
"-  c #446986",
";  c #446E8A",
":  c #486D89",
">  c #4C728D",
",  c #54758D",
"<  c #5E748A",
"1  c #4C7492",
"2  c #4C7996",
"3  c #507793",
"4  c #517995",
"5  c #5B7C94",
"6  c #557D99",
"7  c #5D7F98",
"8  c #1F82AF",
"9  c #1787B8",
"0  c #2D88B4",
"q  c #44809F",
"w  c #5B839D",
"e  c #63869D",
"r  c #6A8298",
"t  c #758A9C",
"y  c #4686A9",
"u  c #5B87A2",
"i  c #5488A7",
"p  c #5D89A4",
"a  c #5D8CAA",
"s  c #4193BC",
"d  c #5898B9",
"f  c #638AA3",
"g  c #6A8BA2",
"h  c #628FAB",
"j  c #748DA2",
"k  c #6C90A7",
"l  c #6492AD",
"z  c #6C95AD",
"x  c #7491A7",
"c  c #7D92A5",
"v  c #7396AD",
"b  c #7B97AA",
"n  c #7499AE",
"m  c #7A99AE",
"M  c #6696B2",
"N  c #6C97B1",
"B  c #6C9BB4",
"V  c #6A9BB9",
"C  c #719BB4",
"Z  c #729BB6",
"A  c #7B9CB1",
"S  c #7B9FB9",
"D  c #6FA2BC",
"F  c #7FA2B7",
"G  c #74A3BC",
"H  c #7AA6BC",
"J  c #149CD4",
"K  c #2F9AC9",
"L  c #0EA1DE",
"P  c #1BA2DB",
"I  c #2FA4CE",
"U  c #3EA6D2",
"Y  c #3EADDA",
"T  c #0DA9E7",
"R  c #0BADEC",
"E  c #15A7E4",
"W  c #16ACE7",
"Q  c #1BB3ED",
"!  c #06AFF7",
"~  c #07B4F6",
"^  c #09B6F6",
"/  c #07B8F7",
"(  c #09BAF7",
")  c #06B4F8",
"_  c #08B9F8",
"`  c #13B5F2",
"'  c #14BAF5",
"]  c #1BBAF4",
"[  c #2DAFE1",
"{  c #32AFE1",
"}  c #28B7ED",
"|  c #38B8EA",
" . c #24BBF1",
".. c #33BDF0",
"X. c #4D9EC6",
"o. c #4EA3C9",
"O. c #4AADD5",
"+. c #55AED0",
"@. c #59B4DA",
"#. c #67ACCC",
"$. c #76ACC7",
"%. c #7AACC5",
"&. c #7EB1CA",
"*. c #65B4D5",
"=. c #65B9D9",
"-. c #47BBE7",
";. c #51B8E0",
":. c #37CAED",
">. c #6FC1DD",
",. c #7AC3DC",
"<. c #49C0EA",
"1. c #59C3E8",
"2. c #5CE2F4",
"3. c #76E5F5",
"4. c #7DF0F4",
"5. c #8095A6",
"6. c #849BAC",
"7. c #8C9AAA",
"8. c #949CAB",
"9. c #879FB1",
"0. c #9AA1AF",
"q. c #83A2B5",
"w. c #8BA3B5",
"e. c #87A5B9",
"r. c #83AABE",
"t. c #8CAABC",
"y. c #95A4B3",
"u. c #9BA4B4",
"i. c #95ACBC",
"p. c #9DABBB",
"a. c #A0AAB9",
"s. c #ADAEB9",
"d. c #B1B3BF",
"f. c #83ADC1",
"g. c #94ACC0",
"h. c #85B1C3",
"j. c #8AB3C5",
"k. c #84B4CA",
"l. c #8EB5CB",
"z. c #87BACF",
"x. c #8BBACD",
"c. c #97B5C8",
"v. c #8DBED1",
"b. c #A5B5C4",
"n. c #ACBCCA",
"m. c #B6B9C5",
"M. c #B5BBC7",
"N. c #88C2D7",
"B. c #83C5DB",
"V. c #93C3D4",
"C. c #93CADB",
"Z. c #B6C2CE",
"A. c #ABC6D5",
"S. c #BCC6D5",
"D. c #B9CAD6",
"F. c #BED1DB",
"G. c #AED2E4",
"H. c #BBD7E5",
"J. c #99F4F7",
"K. c #A8F5FA",
"L. c #C5C5CF",
"P. c #C6C8CF",
"I. c #C6C7D0",
"U. c #C4C8D3",
"Y. c #CACBD4",
"T. c #C2CBD9",
"R. c #C9CFDA",
"E. c #CFD0D6",
"W. c #C7D2DA",
"Q. c #CDD1DB",
"!. c #D3D4DB",
"~. c #D7D8DE",
"^. c #CAD9E5",
"/. c #D2D7E1",
"(. c #D4DBE5",
"). c #DBDDE5",
"_. c #D3DEEB",
"`. c #D9DFE8",
"'. c #DBE2EA",
"]. c #DCE3EA",
"[. c #D6E7F4",
"{. c #DDEDF4",
"}. c #DDECFB",
"|. c #D5F5FC",
" X c #E0E1E6",
".X c #E2E5EA",
"XX c #E4E9ED",
"oX c #E1EFF5",
"OX c #EDF3F6",
"+X c #E4F3FD",
"@X c #EBF5FC",
"#X c #ECF9FE",
"$X c #F2F6F9",
"%X c #F4FBFE",
"&X c #FEFFFF",
/* pixels */
"( ( ( ( ( ( ( ( ( ( ( ( ( ( ( ( ( ( ( ( ( ( ( ( ( ( ( ( ( ( ( ( ( ( ( ( ( ( _ ( ",
"( ( ( ( ( ( ( ( ( ( ( ( ( ( ( ( ( ( / :.<.1.] / ( ( ( ( ( ( _ _ ^ _ ( _ _ _ _ ^ ",
"( / / / / / ( ( ^ ^ _ ^ ( ( ( ( ' <.>.V.V.V.,. .( ( ( / ( ( / ( ^ _ ^ ~ _ _ ) _ ",
"^ ( ^ / / / ( ( / / ^ / ( ' 1.,.+.z.V.V.V.V.V.=.B.,.:./ ^ _ / _ _ ^ _ _ ) _ ) ^ ",
"^ ~ ^ ^ / / / / _ ) ^ / :.B.V.V.D l &.$.%.N.D x.V.V.V.1._ _ ~ ~ ) ^ ^ ~ ~ ^ ^ ) ",
"R ^ ^ ^ / / ~ / _ _ / ] C.v.&.l l H p l B a D N.V.V.V.%. .^ ~ _ ^ ~ _ ~ ) ) ) ^ ",
"~ ~ ~ ~ ~ ~ / ~ ) _ _ 1.v.$.u f.V.V.B &.d i a M $.%.h N N.../ ) ^ ) ~ ~ ~ ) ^ ) ",
"/ ~ ~ ~ ~ / ~ ~ ) _ ' &.z.M H k.&.B i I :.{ y H u - N v.v.N.] ~ ~ ) ^ ) ^ ~ ~ ) ",
"~ ~ ~ ~ ~ / ~ ~ / ` ;.a u h G V a a 0 2.J.4.U i w h v.x.k.k.=.) ~ _ ~ ~ ) ~ ~ ^ ",
"~ ~ ~ ~ R / ~ / ^ >.k.h.w > N w r g.$.3.|.K.+.g.c 5 v Z l a o.^ ~ ~ ~ ) ) ~ ) ~ ",
"~ ~ / ~ ~ / ~ / Q ,.j.r.f.z e.g.S.T.D.G.^.H.D.T.S.b.j b e G &.-.^ ) ~ ) ~ ~ ~ ~ ",
"~ ~ ~ ~ ~ ~ / ~ Q N.r.B A m n.R.R./.^._._._._./.(./.T.c.m f.k.=.~ _ ~ ~ ! ) ) ) ",
"~ ~ ~ ~ ~ ~ ~ ~ ` H j.n 6.Z./.(._.}.}.}.+X+X+X+X}.'.(.T.c m r.*._ ~ ~ ) ) ~ ~ ) ",
"~ / ~ ~ / ~ ~ ~ ( $.t.b i.!.`.}.+X#X%X%X%X&X&X&X%X+XXX`.Z.t m *._ ) ~ ~ ~ ) ~ ~ ",
"~ ~ / ~ ~ ~ / ~ ( D n b Z.(.{.%X%X&X&X&X&X&X&X&X&X%X@X.X(.7.m O.) ) ~ ~ ~ ) ~ ! ",
"/ / / R ~ / ~ ~ ( } A 7.(.].#X&X&X&X&X&X&X&X&X&X&X&X%XOX).p.e O.` ~ ) ) ~ ! ) ^ ",
"~ / ^ ~ ~ / ~ ~ ) -.m u./.oX%X&X&X&X&X&X&X&X&X&X&X&X&X@X].S.9.*.^ ~ ~ ) ~ ! ) ! ",
"^ ~ ~ ~ ~ ~ ~ ~ ) | g b./.oX%X&X&X&X&X&X&X&X&X&X&X&X&X%XXXR.6.#.) ) ) ~ ~ ) ) ^ ",
"~ ~ ~ ^ ~ / / ~ _ *.S a.!.{.%X%X&X&X&X&X&X&X&X&X&X&X&X%XXXR.e.k.} ) ! ) ~ ) ) ~ ",
"R ~ ~ ~ ~ ~ ~ ~ ^ $.S a.Q.{.%X%X&X&X&X&X&X&X&X&X&X&X&X%XXXQ.g.k.@.) ) ) ^ ! ^ ! ",
"/ ~ ~ ~ ~ ~ ^ / | $.S p.Q.{.#X&X&X&X&X&X&X&X&X&X&X&X&X%XXX!.w.%.#.' ) ! ) ! ^ ~ ",
"/ ~ ~ / ~ ~ ~ ~ Y Z v p.W.{.#X%X&X&X&X&X&X&X&X&X&X&X&X%XXXY.6.S $.Q ) ) ~ ! ~ ) ",
"~ ~ ~ ~ / ~ ~ ! U h v 0.Y.{.%X&X&X&X&X&X&X&X&X&X&X&X%X%X.XU.6.v Z { ^ ) ) ! ) ! ",
"~ ~ ~ ~ ! ~ ~ ` %.C t.a.Y.{.%X&X&X&X&X&X&X&X&X&X&X&X&X%X.XT.y.e.l O.~ ) ! ^ ) ^ ",
"~ ~ ~ ~ ~ / / [ G C t.a.Y.{.%X&X&X&X&X&X&X&X&X&X&X&X&X%X.XI.i.q.a o.~ ~ ! ~ ! ! ",
"~ ~ ~ ~ ~ R / U Z f c.p.Y.{.%X%X&X&X&X&X&X&X&X&X&X&X%X%X'.L.i.q.7 y ~ ~ ~ ! ^ ! ",
"~ R ~ ~ ~ ~ ) X.p 5 i.u.P.{.%X%X&X&X&X&X&X&X&X&X&X&X%X#X XZ.w.A 3 y ~ ) ~ ! ^ ^ ",
"~ ~ ~ ~ ~ ~ ~ y 1 w e.y.P.{.%X%X%X&X&X&X&X&X&X&X&X&X&X#X).m.6.m @ * ! ! ! ~ ^ ! ",
"~ ~ ~ ! ~ ) R 2 , 5 b 8.P.{.%X&X&X&X&X&X&X&X&X&X&X&X%X#X~.m.6.x 4 s ~ ) ! ! ~ ~ ",
"~ ~ ~ ~ ~ R E ; : < j 7.L.{.%X&X&X&X&X&X&X&X&X&X&X&X%X#X~.d.5.e = w J ) ) ! ~ ! ",
"! ~ ~ ! ~ ~ T # o $ 7 8.L.{.%X&X&X&X&X&X&X&X&X&X&X&X%X#X!.d.t r O - 0 ! ! ! ~ ! ",
"! ~ ~ ~ ~ ^ T > o $ < 8.Y.oX%X&X&X&X&X&X&X&X&X&X&X&X%X#X!.d.t , . $ & ! ! ~ ~ ! ",
"~ ~ ~ ! ~ ~ P 1 + e b 0.Y.oX%X&X&X&X&X&X&X&X&X&X&X&X%X#X!.d.5.m $   X T ! ! ! ! ",
"~ ~ ~ ~ ~ ~ K = = v e.0.P.oX%X&X&X&X&X&X&X&X&X&X&X&X%X+XE.s.6.A f B ; L ~ ! ~ ! ",
"~ ~ ~ ~ / ~ 8 . = k x b.Y.oX%X%X&X&X&X&X&X&X&X&X&X&X%X+XY.s.6.c.k.&.G I ! ! ) ! ",
"~ ~ ~ ~ ( W d 2 , w m A.(.{.%X&X&X&X&X&X&X&X&X&X&X&X%X|.P.M.c.x.$.Z f 6 T ! ! ~ ",
"~ ~ R / R q p B %.k.m i.F.{.#X%X&X&X&X&X&X&X&X&X&X&X%X|.!.H.l.Z w 4 3 > J ~ ! ) ",
"~ ~ ^ ~ 8 # : 6 z f.V.w.n.(.+X%X%X&X&X&X&X&X%X%X%X%X|.[.^.c.F e $ = = + 9 ~ ) ! ",
"^ ~ / T X . # : 1 f H c.A.D.'.XXOX$X%X$X$X$X$XOXOXXX(.F.c.c.v.G O O h B % ! ! ! ",
"^ ~ ~ 9     O $ - > g x e.A.Z.W.'..XXXXXXXXX].).(.W.Z.i.c.t.v 4 2 G N 6 = J ! ) "
};
