/* XPM */
static char *result[] = {
/* columns rows colors chars-per-pixel */
"40 40 229 2 ",
"   c #3C4359",
".  c #2B4965",
"X  c #2E4E6A",
"o  c #3E4A65",
"O  c #33536E",
"+  c #2D5775",
"@  c #345671",
"#  c #365975",
"$  c #3B5B76",
"%  c #3B5C77",
"&  c #37617F",
"*  c #3E617D",
"=  c #41455B",
"-  c #464A64",
";  c #48516B",
":  c #4D526B",
">  c #51556E",
",  c #495A76",
"<  c #4B5E7A",
"1  c #535571",
"2  c #5A5A76",
"3  c #545C79",
"4  c #42637E",
"5  c #59617C",
"6  c #61627F",
"7  c #317195",
"8  c #2A7CA5",
"9  c #426681",
"0  c #456A86",
"q  c #4F6B85",
"w  c #456E89",
"e  c #4A6E8A",
"r  c #5B6682",
"t  c #596B86",
"y  c #4C728D",
"u  c #59738D",
"i  c #4D7591",
"p  c #4D7996",
"a  c #4B7B9A",
"s  c #507792",
"d  c #527B95",
"f  c #557E99",
"g  c #597F99",
"h  c #646A86",
"j  c #626D8A",
"k  c #6A748F",
"l  c #677893",
"z  c #6B7C99",
"x  c #717A96",
"c  c #717E99",
"v  c #597DA8",
"b  c #477DB6",
"n  c #637EA7",
"m  c #1E7ED7",
"M  c #2C7CCC",
"N  c #127FE4",
"B  c #1F82AF",
"V  c #188ABA",
"C  c #1E93BF",
"Z  c #3190B8",
"A  c #44809F",
"S  c #55829D",
"D  c #5B839D",
"F  c #70819D",
"G  c #4687AB",
"H  c #5484A2",
"J  c #5986A1",
"K  c #5D89A4",
"L  c #5388AA",
"P  c #5D8CAA",
"I  c #4E90AF",
"U  c #478EB1",
"Y  c #4D8EBC",
"T  c #5194B5",
"R  c #5E95B3",
"E  c #5C9ABA",
"W  c #638BA4",
"Q  c #6C8AA5",
"!  c #6B83AA",
"~  c #628EAA",
"^  c #798AA7",
"/  c #6492AC",
"(  c #6C92AC",
")  c #6998AF",
"_  c #7A95AF",
"`  c #6595B2",
"'  c #6C97B3",
"]  c #6698B7",
"[  c #6C9BB4",
"{  c #6C9DB9",
"}  c #729DB5",
"|  c #6FA2BC",
" . c #75A4BC",
".. c #7AA4BA",
"X. c #7AA8BC",
"o. c #1D84D7",
"O. c #149CD4",
"+. c #248EC8",
"@. c #289AC6",
"#. c #2394C9",
"$. c #3499CA",
"%. c #0EA1DE",
"&. c #1BA2DB",
"*. c #3BA3C5",
"=. c #38A5C7",
"-. c #2EA9D4",
";. c #3EA9D4",
":. c #0F88F1",
">. c #0186FC",
",. c #048CFB",
"<. c #0999F9",
"1. c #169AF9",
"2. c #2A99F3",
"3. c #0DA9E7",
"4. c #0BADEC",
"5. c #16A7E7",
"6. c #18B2EC",
"7. c #06AFF7",
"8. c #03A5FA",
"9. c #06A9F9",
"0. c #19A8F7",
"q. c #07B4F6",
"w. c #09B6F6",
"e. c #07B8F7",
"r. c #09BAF7",
"t. c #04B6FA",
"y. c #03BBFB",
"u. c #09BAF8",
"i. c #13B5F2",
"p. c #14BBF6",
"a. c #1CBCF4",
"s. c #17BAF9",
"d. c #2DAFE1",
"f. c #32AFE1",
"g. c #23B4EC",
"h. c #2AB3E8",
"j. c #36B4E7",
"k. c #29A8F8",
"l. c #25B2F6",
"z. c #24BAF1",
"x. c #2CBCF3",
"c. c #2DB1FB",
"v. c #23BCFA",
"b. c #2BBDFB",
"n. c #34B5F3",
"m. c #4D9EC6",
"M. c #43A5C9",
"N. c #55A5C8",
"B. c #49A7D3",
"V. c #55AED0",
"C. c #59B3D9",
"Z. c #68A9C8",
"A. c #69AACB",
"S. c #76A9C4",
"D. c #75ACC5",
"F. c #7AACC5",
"G. c #7EB1CA",
"H. c #65B7D8",
"J. c #79B6D2",
"K. c #4DB9EF",
"L. c #0FC9F7",
"P. c #02C3FC",
"I. c #0BC2FA",
"U. c #03CCFC",
"Y. c #0CCDFA",
"T. c #15C3F4",
"R. c #1BC2F5",
"E. c #15C4FA",
"W. c #1BC5FB",
"Q. c #13CBFB",
"!. c #1CCAFB",
"~. c #0DD1F6",
"^. c #03D1FC",
"/. c #0CD2FA",
"(. c #13D3FA",
"). c #1BD5F9",
"_. c #1AD7F8",
"`. c #37CAED",
"'. c #2BC8F7",
"]. c #24C3FB",
"[. c #2CC3FB",
"{. c #26CBF9",
"}. c #32CCF5",
"|. c #38CAF5",
" X c #3BCAF9",
".X c #22D5F6",
"XX c #25D4FB",
"oX c #2CD5FC",
"OX c #23D9FA",
"+X c #2BDBFA",
"@X c #3AD6F5",
"#X c #32D5FB",
"$X c #39D5FA",
"%X c #36DCFA",
"&X c #3BDAF9",
"*X c #3CE1FA",
"=X c #6FC1DD",
"-X c #7AC3DC",
";X c #49C0EA",
":X c #59C3E8",
">X c #45CFF8",
",X c #47D8F7",
"<X c #43DCFB",
"1X c #57DCF8",
"2X c #64C6F7",
"3X c #76CEFA",
"4X c #60DBFA",
"5X c #45E3F6",
"6X c #5BE5F6",
"7X c #58E5F8",
"8X c #70E8F7",
"9X c #8794B0",
"0X c #8497B3",
"qX c #8C9BB6",
"wX c #8E9DB8",
"eX c #8CA9BF",
"rX c #82AFC3",
"tX c #96A5C1",
"yX c #87B5C7",
"uX c #83B4CA",
"iX c #8BBACD",
"pX c #82BAD0",
"aX c #8CBED1",
"sX c #88C2D7",
"dX c #83C5DB",
"fX c #93C3D4",
"gX c #97D5FC",
"hX c #92F0F9",
"jX c #C6FBFB",
/* pixels */
"r.r.r.r.r.r.I.r.r.r.r.r.I.r.r.r.r.r.r.r.r.r.r.r.T.e.r.I.e.e.r.r.u.u.u.u.u.u.r.r.",
"r.r.r.r.r.r.r.r.r.r.r.r.r.r.r.r.r.r.i.'.;X:Xp.r.e.r.r.r.e.r.e.r.e.u.u.u.u.u.y.y.",
"r.e.e.e.r.e.e.r.e.w.e.w.r.r.r.r.r.;X-XfXfXfXdXa.r.r.r.r.u.w.r.r.u.e.u.q.w.w.w.w.",
"w.r.w.e.w.e.e.e.e.e.w.q.r.i.:X-XV.pXfXfXfXfXfXH.sX-Xx.r.w.r.r.e.q.u.t.u.w.w.w.t.",
"e.e.e.e.w.w.e.e.e.w.w.e.'.dXfXfX| / G.D.F.sX| iXfXfXfX:Xe.w.w.w.q.q.u.q.u.q.q.u.",
"q.4.7.e.w.w.w.e.w.e.e.a.fXfXG.~ / X.K ) [ K  .sXfXfXfXF.z.w.w.w.q.u.q.q.q.q.q.q.",
"e.q.e.7.e.e.w.q.e.e.w.:XfXF.J G.fXsX) F.E L P / S.F.~ ' sXx.t.w.q.q.q.q.q.q.q.q.",
"q.e.e.7.7.e.q.q.e.e.i.-XiX` X.uXeX| L -.`.f.G X.D w ) iXfXsXs.w.q.q.u.q.q.q.q.q.",
"4.e.q.q.7.e.e.4.e.p.C.I K ~  .] P ~ Z 6XhX8X$.v J ~ iXaXyXyXC.u.q.q.q.q.q.q.q.q.",
"e.q.q.q.7.e.e.7.e.=XyXyXD w P y q 0XG 1XjXhX$.9Xl 9 P ' / P M.w.q.q.q.q.q.q.q.q.",
"q.q.q.q.7.e.q.q.6.-XyXeX .S J Q wXtX0XA.fXJ._ qXwX^ 4 D d | yXK.u.q.q.w.q.q.q.q.",
"q.q.q.q.e.e.e.e.6.J.eX/ J 0 ^ wX^ ! v Y b b m.! _ wXqXW d ..rXH.q.u.q.q.q.q.q.q.",
"q.q.7.e.7.e.q.q.p.X.eXS * F wX! M :.>.>.>.,.1.2.m v 9X9X@ S ..H.e.q.q.q.t.q.q.q.",
"e.q.e.e.e.7.q.q.r.D...w 4 qXn N >.,.1.,.,.k.K.gXk.:.b 9X^ O D Z.u.q.q.q.7.q.q.q.",
"e.e.e.7.e.e.e.e.r.E D @ F F o.2.,.<.k.k.l.0.k.gXK.k.k.v qX$ S ;.q.q.q.q.q.q.q.q.",
"7.e.7.e.7.e.7.4.e.6.S X wXZ n.3X2Xc.c.l.0.<.8.0.1.k.<.$.x < O -.q.q.q.t.q.q.e.9.",
"7.e.7.e.q.q.q.q.7.h.a < ^ B.b.3X2Xx.l.8.8.8.9.b.v.0.<.<.z l s N.w.q.q.q.q.q.q.q.",
"e.e.e.e.q.q.q.e.q.d.7 j ^ B.0.0.v.[.[.[.v.b.[.[.].b.0.0.F ^ 0 N.q.q.q.q.7.q.t.7.",
"7.e.q.e.e.q.q.q.q.V.J r x +.8.v.[. X1X4X,X X[. X>X>Xb.l.j F w D.l.q.q.q.q.q.q.q.",
"4.7.q.q.e.q.q.q.i.Z.J t c +.s.[.>X4X Xa.R.W.W.W.u.a. Xx.j F S | C.q.q.7.t.q.q.q.",
"e.q.q.e.w.q.q.q.j.D.H u x #.a.[.1XW.E.W.E.P.I.I.W.{.p.h.t F e ` A.w.e.q.7.q.q.q.",
"e.q.q.q.q.q.q.q.B.] a q k @.t.$X].{.L.P.P.P.P.P.P.I.{.a.r k # / F.6.e.q.q.7.q.q.",
"7.e.q.q.q.q.q.q.;.H s < j #.r.@XQ.E.P.Y.Y.Y.L.P.P.P.P.'.5 r * H { f.e.9.q.7.q.q.",
"e.7.e.e.q.q.q.6.S.~ W t h @.$XT.XXU.Y./.U./.(.U.P.P.!.}.5 h 0 ~ ` B.q.t.q.q.q.q.",
"7.e.q.q.7.q.e.d.../ ( 3 6 *.>XL.OX/./.^._.+X+XOXOX).L.R.3 h y ( D N.q.q.9.w.w.q.",
"e.7.q.q.e.7.e.=.[ D ( 4 6 *.1XP.Q.~.^.~.*X7X6X7X<XoXoXT.5 r y W d U q.q.q.q.9.q.",
"7.7.e.q.q.q.e.m.K d ( , 6 *.6XU./.(.~.*X*X/.^._.7X&XoXT.3 5 q W i G q.q.q.9.w.q.",
"e.7.4.q.q.4.w.G d y W , 2 *.,XU.(./.*X*X*X*X_./.^.7XXX}.1 3 4 D # 8 7.7.7.q.w.q.",
"q.q.q.q.q.7.4.p y w D , 2 M.1XL.).^.*X5X5X6X+X_.~.@X<X>X: 3 9 D i Y q.q.9.t.q.q.",
"q.7.q.q.q.q.5.e w * e ; 2 @.4X.X/.^._.6X6X6XOXOX^..X1X@X: 3 $ d 9 D %.q.q.7.7.7.",
"q.7.q.7.q.q.3.& @ @ * ; 1 C oX,XU./.^._.+X_._._./.1X1X@X: 1 O y @ 0 Z q.q.7.7.q.",
"q.q.q.q.q.q.3.y @ O .   5 Z #X$X%XU.^.^.^.~._.Y.Q.hX$X,X- > . 4 X 4 7 q.9.7.q.7.",
"7.q.q.7.q.q.&.d $ D y - 1 C @X%X&XoX(.U.^.U.U.Q.%X$XoX|.- : % W , . + 3.7.7.7.7.",
"q.q.q.q.q.w.#.9 4 W D o - C E.,X,X&X<X&X&X%X<X5X#XoX$XR.  = 4 W K ' 7 %.q.7.7.q.",
"4.q.q.q.w.q.B @ 4 D s u 2 C y.u.'.1X#XoXoX#XoXoX&X{.R.i.= - 4  .uXF...$.7.7.7.q.",
"e.q.q.q.w.6.T y s y D  ...$.y.y.y.I.%X#XoXoX#X$XT.y.E.w.= t ~ S...| W g 3.7.q.7.",
"e.q.q.q.4.A K { F.S.D f / C.].a.W.y.y.I.E.E.I.y.y.y.t.z.( S.] ~ S f s y O.q.q.q.",
"q.q.q.q.B * e f ) ..rXs i / j.z.[.'.p.p.p.s.p.u.p.g.x.C.{ K J f * 9 9 # V q.7.q.",
"e.q.e.3.+ X * w i D ) [ [ d d a E E E R R R I U R J H H i / S.[ # @ ~ } 7 7.q.7.",
"q.q.q.V . . @ * 0 e f d D ( , 7 y y w y y s i i s s s % [ ` K i p  .' S # O.7.q."
};
