/* XPM */
static char *result[] = {
/* columns rows colors chars-per-pixel */
"40 40 154 2 ",
"   c #397609",
".  c #388320",
"X  c #3B912D",
"o  c #399235",
"O  c #39973C",
"+  c #418509",
"@  c #389F4A",
"#  c #2B8F57",
"$  c #2C9B66",
"%  c #249373",
"&  c #30A263",
"*  c #7F9054",
"=  c #90863E",
"-  c #3E6DA9",
";  c #3C73AE",
":  c #2B74B3",
">  c #287ABA",
",  c #4172AD",
"<  c #4B77AF",
"1  c #4377B1",
"2  c #4C7CB5",
"3  c #507FB7",
"4  c #1D9385",
"5  c #1A9795",
"6  c #1B9C96",
"7  c #209783",
"8  c #25A487",
"9  c #23A994",
"0  c #20A99D",
"q  c #15A6B7",
"w  c #5A83B6",
"e  c #5584BB",
"r  c #5887BC",
"t  c #1E8ECD",
"y  c #1993D4",
"u  c #169BDC",
"i  c #1C9BDB",
"p  c #2587C7",
"a  c #2B84C3",
"s  c #228BCA",
"d  c #2399D7",
"f  c #289EDC",
"g  c #11ACCE",
"h  c #0EABD2",
"j  c #0CAEDD",
"k  c #0EB2DC",
"l  c #12B1D2",
"z  c #38A3DC",
"x  c #129EE2",
"c  c #199FE0",
"v  c #0BA6E9",
"b  c #0CABED",
"n  c #13A2E3",
"m  c #18AEE1",
"M  c #10A7E8",
"N  c #13ACEB",
"B  c #1DADEC",
"V  c #0CB2E3",
"C  c #09B3ED",
"Z  c #13B2E8",
"A  c #05AFF6",
"S  c #0BADF1",
"D  c #07B4F6",
"F  c #08B5F6",
"G  c #07B8F7",
"H  c #09BAF6",
"J  c #06B4F8",
"K  c #08BAF8",
"L  c #12B2F2",
"P  c #16B8F5",
"I  c #25A6E2",
"U  c #22AEEC",
"Y  c #2CABE8",
"T  c #38A5E0",
"R  c #34ABE5",
"E  c #25B3EF",
"W  c #22B2F0",
"Q  c #2CB7F3",
"!  c #2BB9F3",
"~  c #37BCF2",
"^  c #538AC1",
"/  c #5F8DC0",
"(  c #5D98CB",
")  c #459CD3",
"_  c #6291C4",
"`  c #7898C2",
"'  c #41A4DD",
"]  c #5FAADD",
"[  c #6BABD7",
"{  c #64A9DA",
"}  c #7FADD5",
"|  c #73B0DD",
" . c #43A7E0",
".. c #41BAEF",
"X. c #51B6E9",
"o. c #5BBDEC",
"O. c #60B7E5",
"+. c #68BBE6",
"@. c #75B9E2",
"#. c #64C2ED",
"$. c #7BC7EC",
"%. c #6BCBF3",
"&. c #84B4AA",
"*. c #83A2C7",
"=. c #80B2D8",
"-. c #89B5D8",
";. c #8FBADC",
":. c #9BB7D7",
">. c #95B8D7",
",. c #A5BCD7",
"<. c #84BCE0",
"1. c #ADC5DF",
"2. c #B2C5DD",
"3. c #B6C8DE",
"4. c #B8C9DF",
"5. c #82C5EB",
"6. c #8EC6E8",
"7. c #83CBEE",
"8. c #94C3E4",
"9. c #9BD7F2",
"0. c #91D8F6",
"q. c #A4C6E2",
"w. c #AFC8E1",
"e. c #B5CCE5",
"r. c #BBCEE3",
"t. c #AFD4ED",
"y. c #B9D0E7",
"u. c #B4D2EA",
"i. c #BED2E8",
"p. c #B8DBF0",
"a. c #C1C4C4",
"s. c #C4D3E4",
"d. c #C9D5E6",
"f. c #CDD9E7",
"g. c #C4D7EB",
"h. c #C6D8EB",
"j. c #CBDBEB",
"k. c #D2DDEA",
"l. c #D6E1ED",
"z. c #DBE4EE",
"x. c #C5E4F4",
"c. c #D4E4F2",
"v. c #DDE6F1",
"b. c #DDE8F3",
"n. c #E0E7F0",
"m. c #E3EBF3",
"M. c #E9EEF4",
"N. c #E5F0F4",
"B. c #EDF2F6",
"V. c #EDF4FA",
"C. c #F1F4F7",
"Z. c #F3F6F9",
"A. c #F6F8FA",
"S. c #FDFEFE",
/* pixels */
"H H H H H H H H H H H H H H H H H H H H H H H H H H H H H H H H H H H H H H H K ",
"H H H G H H H H H H H H H H F H H H H H G G H H H H K H H K H K F n P K H H K H ",
"H G G G H H H H G H G H H H H H C H H H G G G G H K H K H F K N > F t G K K K J ",
"G G G G F H H H G G F G H H H H H H H H D G D G H F N M F G G : r F y J J J J G ",
"G D D G F F G G G G G G G G D D F H F F D G D G G G p s G F s *.k.v u D J D F J ",
"D F D G F G F F G G G C G F D D F F F F G F D D D F ; a F n w B.n.t J K G J J F ",
"C G D D F D G F G D D F D D D D F F F F D G D D G d , a p 1 z.C.r.M J F F J D D ",
"G D D D D D F D D G D D D G D G F F D D D G D D J 2 1 a - f.C.l.l.c v D D J J D ",
"D G D D D G D G D F D C D D G G D G G D D G J D f 3 2 ; f.Z.C.C.m.B y D D D D J ",
"D D D D D F D D G G G G F G C G D G D G D G J N ^ 3 < k.A.Z.C.C.z.d b G D J J D ",
"D D D D D D D D F D D G D G F F D G G D D D D ) e w m.S.A.C.C.C.r.x F J J J D D ",
"D D D D D G G D D D D D D D D D D D D G D D ' w ` A.S.S.A.C.C.s.8.J J F D D J J ",
"D D D D D C V G D D D D D D D D F G D D G T / :.S.S.S.A.A.n.d.m.9.b J D A J J J ",
"D D D D G j $ G 9 F D A D D D D G D D G R / e.S.S.S.S.S.Z.C.C.C.%.y J J J F J A ",
"D G F D C 8 4 4 o G G D D D D D A F D U _ d.S.S.S.S.S.A.A.C.C.C.) v F J F J J F ",
"D G D D G G D % 6 G D D C D D D F F F ( d.S.S.S.S.S.S.S.A.M.s.>.S J J J J A F A ",
"D F D F G C 9 X 7 q 8 @ j G D G D D z 2.S.S.S.S.S.S.S.C.l.f.M.7.F J A J F A J J ",
"F D D D D D D F C   + 0 L #.$.I D F } S.S.S.S.S.S.S.S.S.Z.C.M.z S F J F A J J A ",
"D D G D D k & O . % g L x.a.S.b.I B n.S.S.S.S.S.S.S.C.B.M.f.=.n F J A J F F A F ",
"D D D D D G l $ # 5 j &.S.C.S.A.1.+.S.S.S.S.S.S.S.S.A.n.k.l.Q G F J F A J J J F ",
"F D D G G D D D G F * = N.S.S.S.v.1.S.S.S.S.S.S.S.S.S.S.Z.$.x G F J F J J A J F ",
"D D D D D D D D G Z m 4 ! V.S.S.e.Z.h.N.S.S.S.S.Z.v.f.h.;.i A G J J J F F A J A ",
"D D G D D D D D G D F 5 k 0.S.S.v.A.S.g.B.S.S.S.S.S.S.c.W F G D F A J F A J J F ",
"D D D D D D D G D J A # h %.S.S.S.Z.S.S.i.V.A.v.k.B.j.z x F D D J A F J A J F J ",
"D D D D D D D D D D F h G ~ C.S.S.S.S.S.S.h.c.A.m.@.x S D D D F A J J A A F J A ",
"G C D D D D D D D F D D G D p.V.A.S.S.S.S.S.Z.h...J D D D D F F F J J F J A A F ",
"D D D A D D D D F D D F D D E c.C.C.A.S.S.S.S.S.t.P D F A F F A F A J J F F J A ",
"D D D A D D D D D F F D D D D B t.C.C.C.B.S.S.S.A.5.D D F A J J F A A A A A F A ",
"D D D A D C G D D D D D D D A D G X.u.m.Z.Z.S.S.S.m.#.J A J J F J A A J A A J J ",
"A D D D D A D D D D A F G D D D D D D U  .O.q.B.S.S.b.@.L J A J J A F A J A F A ",
"D D D D D D D D F A D D D D A D D F D A F D F ] N.S.S.m.8.Q F J F A J L A A J A ",
"A D A D D A D D D D D D D D D S F F A D A A D D | S.S.m.k.w.6.o.Q J J J A A J A ",
"D D D A D F D D D C D D A A A D D D D A D D D A B r.B.l.d.n.4.n.<.J A D A A A A ",
"D D A A D D D D G G D D D D A D D D D D D D D A A ] Z.k.m.3.C.,.~ J A J J J A A ",
"D D C G G D D D G G D D D D D A D D D D D C D A J Y h.C.4.M.e.<.b D D A A A A A ",
"D D D G D G D D D D D D D D D D A D D D A D D D F F :.C.f.k.-.S F D D D A A F J ",
"D G D G F D G D D D D D D D D D D D A A A D D A D D { C.B.[ c F F F F A J A A J ",
"D D D G G D D G D G D G D D D A D D D D D A D A F A  .y.@.x A J A J J J A F F A ",
"D D D D D F D D G G D D D D A A D C D D D D D D D D B B S A F F J F J F A J A A ",
"D D D D G F F D D G D D D G G C A D D D D D G D D D F J J J F A F A A A J J J J "
};
