/* XPM */
static char *result[] = {
/* columns rows colors chars-per-pixel */
"40 40 90 1 ",
"  c #05AFF6",
". c #05AFF7",
"X c #06AFF6",
"o c #06B1F5",
"O c #07B2F5",
"+ c #06B3F5",
"@ c #07B3F5",
"# c #05B0F7",
"$ c #05B1F7",
"% c #06B0F6",
"& c #07B0F6",
"* c #06B1F6",
"= c #07B1F6",
"- c #06B0F7",
"; c #06B1F7",
": c #07B1F7",
"> c #05B2F6",
", c #06B2F6",
"< c #07B2F6",
"1 c #06B3F6",
"2 c #07B3F6",
"3 c #06B2F7",
"4 c #07B2F7",
"5 c #06B3F7",
"6 c #07B3F7",
"7 c #06B4F5",
"8 c #07B4F5",
"9 c #07B5F5",
"0 c #05B4F7",
"q c #06B4F6",
"w c #07B4F6",
"e c #06B5F6",
"r c #07B5F6",
"t c #06B4F7",
"y c #07B4F7",
"u c #06B5F7",
"i c #07B5F7",
"p c #06B6F6",
"a c #07B6F6",
"s c #07B7F6",
"d c #06B6F7",
"f c #07B6F7",
"g c #07B7F7",
"h c #08B4F5",
"j c #08B4F6",
"k c #08B5F6",
"l c #08B4F7",
"z c #08B5F7",
"x c #08B6F6",
"c c #08B7F6",
"v c #09B7F6",
"b c #08B6F7",
"n c #08B7F7",
"m c #09B7F7",
"M c #07B8F6",
"N c #07B8F7",
"B c #08B8F6",
"V c #09B8F6",
"C c #08B9F6",
"Z c #09B9F6",
"A c #08B8F7",
"S c #09B8F7",
"D c #08B9F7",
"F c #09B9F7",
"G c #0AB9F6",
"H c #08BAF6",
"J c #09BAF6",
"K c #09BBF6",
"L c #08BAF7",
"P c #09BAF7",
"I c #09BBF7",
"U c #0ABAF6",
"Y c #0ABBF6",
"T c #0BBBF6",
"R c #0ABAF7",
"E c #0ABBF7",
"W c #09BCF7",
"Q c #09BDF7",
"! c #0ABCF6",
"~ c #0BBCF6",
"^ c #0ABDF6",
"/ c #0ABCF7",
"( c #0BBCF7",
") c #0BBEF6",
"_ c #0BBEF7",
"` c #06B4F8",
"' c #08B8F8",
"] c #08B9F8",
"[ c #09BBF8",
"{ c #09BCF8",
/* pixels */
")Y/W!W!QE!^/W!~!YYE!III_(EW/YP/IE[RI{PRI",
"JLKBCKHPZJYPAZBTUBBUFADFFILPSSAAS]ID']]A",
"cnMBZBBHBBnZJZcGSBZAAcncVnDPFSAFmSAgf'nf",
"xcAgxscNNMxxHvcBvBCcznxgxxrBSSAnnngfifif",
"kkrsrcBsCcBaCsraccccaxkfxnbbnnfiifbriyyg",
"qkraaaxsBcaafw2rrjarirwwfafzbnfnzirlfyiz",
"8rewwaxasawrae2ackwkwfwfffa2iiidfiyi5ty6",
"k81+wrweqkrrrraacawwwyt5yiwwjzfiwyiyyiyi",
"ryq1warraaw@wqaxrsarrafw1tifziiiyitytyyi",
"wwr11rrircrwafrrapeawiyf1wiirytiw6yy5yyt",
"wqrrwrwrwaxifsareerfwyiwiibiriiifiiiy5y5",
"8qwqwaarwraqqarrefaar1wrrrawfbiiffii3t5`",
"wq1qrwqeqrw,wq2qearrqwrwwyuwififniyy5ut5",
"rruqrww11rw*,1wqfiqu01wwiyt5rffify2y5655",
"rgrtiadrwakr2r1w1errtwyrfiiiiigifyiiy5y1",
"wreqwrw2axw2wwwwwwqwwri2tit5iifyby555366",
"warrirwtrrwwqrr2q1,rriiiyr5ruryinw,y6465",
"jrrrtwqerkww2riwqqwrwrifaiiitigiyi5y4556",
"8reriruqekhw2wqqwq1ewuffcfiywyfuiy<6yi66",
"9wqeeererwaw1212q11erfaaitiiiari,i5365i,",
"rwwerqrerrrw1w7wawqqqrwditwifa2rtyy53;y1",
"wequrr1rsr2qwirraqwyfiyiwrq2yiwifiy55565",
"wqiqrw2ecw22uqqerqrtiwiwwir26yiw66y53356",
"w1w,12wapqw2tq21ywwyuiwqiw26yyiy626636t6",
",rw11upewwrytq,q1rw1q1<wwq11wriy25,6434:",
"www111eqqrreeqorwwwqyw,w2t1wywd6<5t63<4<",
"2,1*,wwrrw8rwi1qwqiwriw2wfwy466563554364",
"222,1Oqwwarwwr12w2www262ww<2<<526***=3y6",
"122,1,q11r<rrw<<w312w<2<y222<2<61;*3-;32",
"1,6121,w21,rfq22qw1221222i22212t53;;3-3:",
"111,,2,1@1q2u1,22k<<<1<<11<2<3462,6,%-3;",
",,,q21211qq1w<<<12*,o22,22353321q22;X;:&",
"<11,ww+rrr222**,w211,<,%2<322<6w25,<%-.-",
"w2112wwrew,w1,*,r22w1t, >62,,256yy,33--#",
"rw1qr1weeeqpq,1=,2w22w,,2<1,<6<yy46*#-;3",
"w1trxruaqi1211u,,1+*,1w12w<<65666w2,-;33",
"2uukara1wwww1251r2<,,*<=2<y356yyyzy53333",
"wwrrrqiudawzw1,211,,1%2<<*y24,4i,yt6363*",
"rwbiaxrifnarwr2w<w2222w,2<y6=<235664-53;",
"rwrrxkjrwfrerqq2,112wwy2wwj666z2y6;*$i;5"
};
