/* XPM */
static char *result[] = {
/* columns rows colors chars-per-pixel */
"40 40 107 2 ",
"   c #B6D5F0",
".  c #B7D5F0",
"X  c #B7D6F0",
"o  c #B8D6F1",
"O  c #B9D7F1",
"+  c #BAD7F1",
"@  c #BAD8F1",
"#  c #BBD8F1",
"$  c #BBD8F2",
"%  c #BCD8F2",
"&  c #BCD9F2",
"*  c #BED9F2",
"=  c #BEDAF2",
"-  c #BFDAF3",
";  c #BFDBF3",
":  c #C0DBF3",
">  c #C1DCF3",
",  c #C2DCF3",
"<  c #C2DCF4",
"1  c #C2DDF4",
"2  c #C3DDF4",
"3  c #C3DEF4",
"4  c #C4DEF4",
"5  c #C4DEF5",
"6  c #C5DEF5",
"7  c #C5DFF5",
"8  c #C6DFF5",
"9  c #C7E0F5",
"0  c #CBE2F5",
"q  c #C8E1F6",
"w  c #CAE2F7",
"e  c #CBE2F7",
"r  c #CCE3F7",
"t  c #CDE4F7",
"y  c #CDE4F8",
"u  c #CEE4F8",
"i  c #CFE5F8",
"p  c #D1E5F6",
"a  c #D0E6F8",
"s  c #D1E6F9",
"d  c #D4E8FA",
"f  c #D5E9FA",
"g  c #D9EAF8",
"h  c #D8EAFB",
"j  c #D8EBFB",
"k  c #D9EBFB",
"l  c #DAECFC",
"z  c #DBECFC",
"x  c #DBEDFC",
"c  c #DCEDFC",
"v  c #DDEEFD",
"b  c #DEEEFD",
"n  c #DEEFFD",
"m  c #DFF0FD",
"M  c #E5F1FB",
"N  c #E2F0FD",
"B  c #E0F0FE",
"V  c #E1F1FE",
"C  c #E2F1FE",
"Z  c #E3F1FE",
"A  c #E3F2FF",
"S  c #E4F2FF",
"D  c #E5F2FF",
"F  c #E5F3FF",
"G  c #E6F3FE",
"H  c #E6F3FF",
"J  c #E7F3FF",
"K  c #E7F4FF",
"L  c #E8F4FF",
"P  c #E9F4FF",
"I  c #E9F5FF",
"U  c #EAF5FF",
"Y  c #EBF5FF",
"T  c #EBF6FF",
"R  c #EFF6FC",
"E  c #ECF6FF",
"W  c #EDF6FF",
"Q  c #EDF7FF",
"!  c #EEF7FF",
"~  c #EFF7FF",
"^  c #EFF8FF",
"/  c AliceBlue",
"(  c #F1F8FF",
")  c #F1F9FF",
"_  c #F2F9FF",
"`  c #F3F9FF",
"'  c #F3FAFF",
"]  c #F4F9FF",
"[  c #F4FAFF",
"{  c #F5FAFF",
"}  c #F6FAFF",
"|  c #F6FBFF",
" . c #F7FBFF",
".. c #F8FBFE",
"X. c #F8FBFF",
"o. c #F8FCFF",
"O. c #F9FCFF",
"+. c #FAFCFF",
"@. c #FAFDFF",
"#. c #FBFDFF",
"$. c #FCFDFF",
"%. c #FDFDFF",
"&. c #FCFEFF",
"*. c #FDFEFF",
"=. c #FEFEFF",
"-. c #FEFFFF",
";. c white",
/* pixels */
"A A A A A A E O.Q S A A A A A A A K _ F A A A A A A A A A A A A A A A A A A A A ",
"A A A A A S Q A A A A A A A A F U E F A A A A A A A A A A A A A A A A A A A A A ",
"A A A A A A A A A A A A L _ #.;.;. .A A A A A A A A A A A F ! }  .[ ~ H A A A A ",
"A A A A A A A A A A S [ ;.;.=.$.+.Q A A A A A A A A A A ~ *.;.;.;.;.;.;.{ F A A ",
"A A A A A A A A A K #.*.' U A A A A A A A A A A A A A } +./ U H A S J T ( { F A ",
"H A A A A A A A S #./ S A A A A A A A A A A A A A A E P A A A A A A A A A A H A ",
"*.W A A A A A A ^ K A A A A A A A A A A A A A A A A A A A A A A A A A A A A A A ",
"K ( Y A A A A C Z A A A A A A A A A A A A A A A A A A A A A A A A A A A A A A L ",
"A A A A A A A c y A A A A A A A A A A A A A A A A A A A A A A A A A A A A E #.;.",
"A A A A A A A n X c A A A A A A A A A A A A A A A A A A A A A A A A A A _ ;.*.| ",
"A A A A A A A A % # c A A A A A A A A A A A A A A A A A A A A A A A A ( =.~ S A ",
"A A A A A A A A a   . e b A A A A A A A A A B i B A A A A A A A A A N #.K A A A ",
"A I / / Y A A A A 7       1 i z A C m l s 6 # l A A A A U ~ ( ~ L A ` L A A A A ",
"O.;.;.;.;.&.^ A A c :                     : v A A H ] =.;.;.;.;.;.$./ A A A A A ",
"*.[ ! ~ ] &.;.[ 2 , V j 1               O x A A E =.;.=.#.O.O.*.;.;.L A A A A A ",
"S A A A A A ~ =.M C A A A x t 4 ; & $ -   o d Y -.[ U A A A A A F E ) H A A A A ",
"A A A A A A A I *.F A H ! / ` ` ( W H A 2   * O.P A A A A A A A A A A A A A A A ",
"A A A A A A A A ! |  .;.;.;.;.;.;.;.;...p & g F A A A A A A A A A A A A A A A A ",
"A A A A A A A A A @.;.;.;.=.@.o.O.&.-.;.;.R G A A A A A A A A A A A A A A A A A ",
"A A A A A A A A A [ &._ I A A A A A S T ` &.#.J A A A A A A A A A A T ` [ ` E S ",
"A A A A A A A A I ^ A A A A A A A A A A A F { O.A A A A A A A A T #.;.;.;.;.;.=.",
"A A A A A A A A A A A A A A A A A A A A A A A ( ~ A A A A A A _ *.] ! P K L E ! ",
"A A A A A A A A A A A A A A A A A A A A A A A A ) O.$.=.=.%.O.+.Y A A ~ +.;.;.$.",
"A A A A A A A A A A A A A A A A A A A A A A A A L ;.;.;.;.;.;.;.;.O.O.;.;.*.*.;.",
" ./ F A A A A A A A A A A A A A A A A A A A A U &.{ ! I F F I W _ #.$.~ J A A S ",
"&.;.=./ A A A A A A A A A A A A A A A A A A F ~ S A A A A A A A / O.F A A A A A ",
"A S L ( ` A A A A A A A A A A A A A A A A A A A A A I E Q L A A +.F A A A A A A ",
"A A A A A S A A A A A A A A A A A A A A A A A L { *.;.;.;.;.*. .U A A A A A A A ",
"A A A A A A A A A A A A A A A A A A A A A A ` ;.;.;.;.;.;.;.;.o.A A A A A A A A ",
"A A A A A A A A A A A A A A A A A A A A A ` =.{ W K D A F I ~ { E A A A A A A A ",
"A A A A A A A A A A A A A A A A A A A A E  .H A A A A A A A A A F A A A A A A A ",
"A A A A A A A A A A A A A A A A A A A A ( A A A A A A A A A A A A A A A A A A A ",
"A A A A A A A A A A A A n n A A A A A S F A A A A A A A A A A A A A A A A A A A ",
"V a j A A A A A A C h 9 q A S E ` O.*./ A A A A A A A A A A A S Y / / Q H A A A ",
"A B 5 + 1 9 8 3 ; X   r S / *.;.;.;.;.H A A A A A A A A A A ~ *.;.;.;.;.;. .K A ",
"A A A f <       o 6 j K +.=.| ! P H S A A A A A A A A A F o.=.X._ ~ ! / _ } $.U ",
"A A A A k @     u A K #.) H A A A A A A A A A A A A A A { ! S A A A A A A A A U ",
"A A C r           w ' H A A A A A A A A A A A A A A A S A A A A A A A A A A A A ",
"A j =             0 S A A A A A A A A A A A A A A A A A A A A A A A A A A A A A ",
">           o     = C A A A A A A A A A A A A A A A A A A A A A A A A A A A A A "
};
